# Blender 5.0.1
# www.blender.org
mtllib circle2D.mtl
o Circle
v 0.000000 0.000000 -1.000000
v -0.195090 0.000000 -0.980785
v -0.382683 0.000000 -0.923880
v -0.555570 0.000000 -0.831470
v -0.707107 0.000000 -0.707107
v -0.831470 0.000000 -0.555570
v -0.923880 0.000000 -0.382683
v -0.980785 0.000000 -0.195090
v -1.000000 0.000000 0.000000
v -0.980785 0.000000 0.195090
v -0.923880 0.000000 0.382683
v -0.831470 0.000000 0.555570
v -0.707107 0.000000 0.707107
v -0.555570 0.000000 0.831470
v -0.382683 0.000000 0.923880
v -0.195090 0.000000 0.980785
v 0.000000 0.000000 1.000000
v 0.195090 0.000000 0.980785
v 0.382683 0.000000 0.923880
v 0.555570 0.000000 0.831470
v 0.707107 0.000000 0.707107
v 0.831470 0.000000 0.555570
v 0.923880 0.000000 0.382683
v 0.980785 0.000000 0.195090
v 1.000000 0.000000 0.000000
v 0.980785 0.000000 -0.195090
v 0.923880 0.000000 -0.382683
v 0.831470 0.000000 -0.555570
v 0.707107 0.000000 -0.707107
v 0.555570 0.000000 -0.831470
v 0.382683 0.000000 -0.923880
v 0.195090 0.000000 -0.980785
vn -0.0000 1.0000 -0.0000
vn -0.0000 -1.0000 -0.0000
vt 0.500000 1.000000
vt 0.402455 0.990393
vt 0.308658 0.961940
vt 0.222215 0.915735
vt 0.146447 0.853553
vt 0.084265 0.777785
vt 0.038060 0.691342
vt 0.009607 0.597545
vt 0.000000 0.500000
vt 0.009607 0.402455
vt 0.038060 0.308658
vt 0.084265 0.222215
vt 0.146447 0.146447
vt 0.222215 0.084265
vt 0.308658 0.038060
vt 0.402455 0.009607
vt 0.500000 0.000000
vt 0.597545 0.009607
vt 0.691342 0.038060
vt 0.777785 0.084265
vt 0.853553 0.146447
vt 0.915735 0.222215
vt 0.961940 0.308658
vt 0.990393 0.402455
vt 1.000000 0.500000
vt 0.990393 0.597545
vt 0.961940 0.691342
vt 0.915735 0.777785
vt 0.853553 0.853553
vt 0.777785 0.915735
vt 0.691342 0.961940
vt 0.597545 0.990393
vt 0.000000 0.000000
s 0
f 1/1/1 2/2/1 3/3/1 4/4/1 5/5/1 6/6/1 7/7/1 8/8/1 9/9/1 10/10/1 11/11/1 12/12/1 13/13/1 14/14/1 15/15/1 16/16/1 17/17/1 18/18/1 19/19/1 20/20/1 21/21/1 22/22/1 23/23/1 24/24/1 25/25/1 26/26/1 27/27/1 28/28/1 29/29/1 30/30/1 31/31/1 32/32/1
f 2/33/2 1/33/2 32/33/2
f 3/33/2 2/33/2 32/33/2
f 13/33/2 20/33/2 15/33/2
f 32/33/2 31/33/2 30/33/2
f 4/33/2 32/33/2 30/33/2
f 5/33/2 4/33/2 30/33/2
f 4/33/2 3/33/2 32/33/2
f 30/33/2 29/33/2 28/33/2
f 6/33/2 30/33/2 28/33/2
f 7/33/2 6/33/2 28/33/2
f 7/33/2 28/33/2 27/33/2
f 8/33/2 7/33/2 27/33/2
f 8/33/2 27/33/2 26/33/2
f 9/33/2 8/33/2 26/33/2
f 9/33/2 26/33/2 25/33/2
f 10/33/2 9/33/2 25/33/2
f 10/33/2 25/33/2 24/33/2
f 11/33/2 10/33/2 24/33/2
f 11/33/2 24/33/2 23/33/2
f 12/33/2 11/33/2 23/33/2
f 12/33/2 23/33/2 22/33/2
f 13/33/2 12/33/2 22/33/2
f 21/33/2 20/33/2 22/33/2
f 6/33/2 5/33/2 30/33/2
f 20/33/2 13/33/2 22/33/2
f 14/33/2 13/33/2 15/33/2
f 15/33/2 20/33/2 19/33/2
f 16/33/2 15/33/2 19/33/2
f 16/33/2 19/33/2 18/33/2
f 17/33/2 16/33/2 18/33/2
