# Blender 4.5.3 LTS
# www.blender.org
mtllib elong_fruit.mtl
o Sphere
v 0.000000 -0.151583 -0.587785
v 0.000000 -0.651583 -0.951057
v 0.000000 -5.425824 -0.951057
v 0.000000 -5.925824 -0.587785
v 0.459549 -0.151583 -0.366478
v 0.743566 -0.651583 -0.592974
v 0.743566 -5.425824 -0.592974
v 0.459549 -5.925824 -0.366478
v 0.573048 -0.151583 0.130795
v 0.927212 -0.651583 0.211630
v 0.927212 -5.425824 0.211630
v 0.573048 -5.925824 0.130795
v 0.255030 -0.151583 0.529576
v 0.412648 -0.651583 0.856872
v 0.412648 -5.425824 0.856872
v 0.255030 -5.925824 0.529576
v 0.000000 0.039400 0.000000
v -0.255030 -0.151583 0.529576
v -0.412648 -0.651583 0.856872
v -0.412648 -5.425824 0.856872
v -0.255030 -5.925824 0.529576
v 0.000000 -6.116807 0.000000
v -0.573048 -0.151583 0.130795
v -0.927212 -0.651583 0.211630
v -0.927212 -5.425824 0.211630
v -0.573048 -5.925824 0.130795
v -0.459549 -0.151583 -0.366478
v -0.743566 -0.651583 -0.592974
v -0.743566 -5.425824 -0.592974
v -0.459549 -5.925824 -0.366478
vn 0.1472 -0.9407 -0.3057
vn 0.4339 -0.0000 -0.9010
vn 0.1472 0.9407 -0.3057
vn 0.3630 -0.5477 -0.7538
vn 0.3630 0.5477 -0.7538
vn 0.8157 -0.5477 -0.1862
vn 0.8157 0.5477 -0.1862
vn 0.3307 -0.9407 -0.0755
vn 0.9749 -0.0000 -0.2225
vn 0.3307 0.9407 -0.0755
vn 0.6541 -0.5477 0.5217
vn 0.6541 0.5477 0.5217
vn 0.2652 -0.9407 0.2115
vn 0.7818 -0.0000 0.6235
vn 0.2652 0.9407 0.2115
vn -0.0000 -0.5477 0.8367
vn -0.0000 0.5477 0.8367
vn -0.0000 -0.9407 0.3392
vn -0.0000 -0.0000 1.0000
vn -0.0000 0.9407 0.3392
vn -0.6541 -0.5477 0.5217
vn -0.6541 0.5477 0.5217
vn -0.2652 -0.9407 0.2115
vn -0.7818 -0.0000 0.6235
vn -0.2652 0.9407 0.2115
vn -0.8157 -0.5477 -0.1862
vn -0.8157 0.5477 -0.1862
vn -0.3307 -0.9407 -0.0755
vn -0.9749 -0.0000 -0.2225
vn -0.3307 0.9407 -0.0755
vn -0.3630 -0.5477 -0.7538
vn -0.3630 0.5477 -0.7538
vn -0.1472 -0.9407 -0.3057
vn -0.4339 -0.0000 -0.9010
vn -0.1472 0.9407 -0.3057
vt 0.642857 0.000000
vt 0.714286 0.200000
vt 0.571429 0.200000
vt 0.714286 0.400000
vt 0.714286 0.600000
vt 0.571429 0.600000
vt 0.571429 0.400000
vt 0.714286 0.800000
vt 0.642857 1.000000
vt 0.571429 0.800000
vt 0.428571 0.400000
vt 0.428571 0.200000
vt 0.428571 0.800000
vt 0.428571 0.600000
vt 0.500000 0.000000
vt 0.500000 1.000000
vt 0.285714 0.400000
vt 0.285714 0.200000
vt 0.285714 0.800000
vt 0.285714 0.600000
vt 0.357143 0.000000
vt 0.357143 1.000000
vt 0.142857 0.400000
vt 0.142857 0.200000
vt 0.142857 0.800000
vt 0.142857 0.600000
vt 0.214286 0.000000
vt 0.214286 1.000000
vt 0.000000 0.400000
vt 0.000000 0.200000
vt 0.000000 0.800000
vt 0.000000 0.600000
vt 0.071429 0.000000
vt 0.071429 1.000000
vt 1.000000 0.200000
vt 1.000000 0.400000
vt 0.857143 0.400000
vt 0.857143 0.200000
vt 1.000000 0.600000
vt 1.000000 0.800000
vt 0.857143 0.800000
vt 0.857143 0.600000
vt 0.928571 0.000000
vt 0.928571 1.000000
vt 0.785714 0.000000
vt 0.785714 1.000000
s 0
f 22/1/1 4/2/1 8/3/1
f 3/4/2 2/5/2 6/6/2 7/7/2
f 1/8/3 17/9/3 5/10/3
f 4/2/4 3/4/4 7/7/4 8/3/4
f 2/5/5 1/8/5 5/10/5 6/6/5
f 8/3/6 7/7/6 11/11/6 12/12/6
f 6/6/7 5/10/7 9/13/7 10/14/7
f 22/15/8 8/3/8 12/12/8
f 7/7/9 6/6/9 10/14/9 11/11/9
f 5/10/10 17/16/10 9/13/10
f 12/12/11 11/11/11 15/17/11 16/18/11
f 10/14/12 9/13/12 13/19/12 14/20/12
f 22/21/13 12/12/13 16/18/13
f 11/11/14 10/14/14 14/20/14 15/17/14
f 9/13/15 17/22/15 13/19/15
f 16/18/16 15/17/16 20/23/16 21/24/16
f 14/20/17 13/19/17 18/25/17 19/26/17
f 22/27/18 16/18/18 21/24/18
f 15/17/19 14/20/19 19/26/19 20/23/19
f 13/19/20 17/28/20 18/25/20
f 21/24/21 20/23/21 25/29/21 26/30/21
f 19/26/22 18/25/22 23/31/22 24/32/22
f 22/33/23 21/24/23 26/30/23
f 20/23/24 19/26/24 24/32/24 25/29/24
f 18/25/25 17/34/25 23/31/25
f 26/35/26 25/36/26 29/37/26 30/38/26
f 24/39/27 23/40/27 27/41/27 28/42/27
f 22/43/28 26/35/28 30/38/28
f 25/36/29 24/39/29 28/42/29 29/37/29
f 23/40/30 17/44/30 27/41/30
f 30/38/31 29/37/31 3/4/31 4/2/31
f 28/42/32 27/41/32 1/8/32 2/5/32
f 22/45/33 30/38/33 4/2/33
f 29/37/34 28/42/34 2/5/34 3/4/34
f 27/41/35 17/46/35 1/8/35
