# Blender 4.5.3 LTS
# www.blender.org
mtllib sphere_fruit.mtl
o Sphere
v 0.000000 0.707107 -0.707107
v 0.000000 -0.707107 -0.707107
v 0.552838 0.707107 -0.440874
v 0.781832 0.000000 -0.623490
v 0.552838 -0.707107 -0.440874
v 0.689378 0.707107 0.157346
v 0.974928 0.000000 0.222521
v 0.689378 -0.707107 0.157346
v 0.306802 0.707107 0.637081
v 0.433884 0.000000 0.900969
v 0.306802 -0.707107 0.637081
v 0.000000 -1.000000 0.000000
v 0.000000 1.000000 0.000000
v -0.306802 0.707107 0.637081
v -0.433884 0.000000 0.900969
v -0.306802 -0.707107 0.637081
v -0.689378 0.707107 0.157346
v -0.974928 0.000000 0.222521
v -0.689378 -0.707107 0.157346
v -0.552838 0.707107 -0.440874
v -0.781831 0.000000 -0.623490
v -0.552838 -0.707107 -0.440874
v 0.000000 0.000000 -1.000000
vn 0.1812 -0.9086 -0.3763
vn 0.4065 0.3496 -0.8441
vn 0.4065 -0.3496 -0.8441
vn 0.1812 0.9086 -0.3763
vn 0.9134 0.3496 -0.2085
vn 0.9134 -0.3496 -0.2085
vn 0.4072 0.9086 -0.0929
vn 0.4072 -0.9086 -0.0929
vn 0.3266 -0.9086 0.2604
vn 0.7325 0.3496 0.5841
vn 0.7325 -0.3496 0.5841
vn 0.3266 0.9086 0.2604
vn -0.0000 -0.9086 0.4177
vn -0.0000 0.3496 0.9369
vn -0.0000 -0.3496 0.9369
vn -0.0000 0.9086 0.4177
vn -0.3266 -0.9086 0.2604
vn -0.7325 0.3496 0.5841
vn -0.7325 -0.3496 0.5841
vn -0.3266 0.9086 0.2604
vn -0.4072 -0.9086 -0.0929
vn -0.9134 0.3496 -0.2085
vn -0.9134 -0.3496 -0.2085
vn -0.4072 0.9086 -0.0929
vn -0.1812 0.9086 -0.3763
vn -0.1812 -0.9086 -0.3763
vn -0.4065 0.3496 -0.8441
vn -0.4065 -0.3496 -0.8441
vt 0.642857 0.000000
vt 0.714286 0.250000
vt 0.571429 0.250000
vt 0.714286 0.500000
vt 0.714286 0.750000
vt 0.571429 0.750000
vt 0.571429 0.500000
vt 0.642857 1.000000
vt 0.428571 0.750000
vt 0.428571 0.500000
vt 0.428571 0.250000
vt 0.500000 1.000000
vt 0.500000 0.000000
vt 0.357143 0.000000
vt 0.285714 0.250000
vt 0.285714 0.750000
vt 0.285714 0.500000
vt 0.357143 1.000000
vt 0.214286 0.000000
vt 0.142857 0.250000
vt 0.142857 0.750000
vt 0.142857 0.500000
vt 0.214286 1.000000
vt 0.071429 0.000000
vt 0.000000 0.250000
vt 0.000000 0.750000
vt 0.000000 0.500000
vt 0.071429 1.000000
vt 0.928571 0.000000
vt 1.000000 0.250000
vt 0.857143 0.250000
vt 1.000000 0.500000
vt 1.000000 0.750000
vt 0.857143 0.750000
vt 0.857143 0.500000
vt 0.928571 1.000000
vt 0.785714 1.000000
vt 0.785714 0.000000
s 0
f 12/1/1 2/2/1 5/3/1
f 23/4/2 1/5/2 3/6/2 4/7/2
f 2/2/3 23/4/3 4/7/3 5/3/3
f 1/5/4 13/8/4 3/6/4
f 4/7/5 3/6/5 6/9/5 7/10/5
f 5/3/6 4/7/6 7/10/6 8/11/6
f 3/6/7 13/12/7 6/9/7
f 12/13/8 5/3/8 8/11/8
f 12/14/9 8/11/9 11/15/9
f 7/10/10 6/9/10 9/16/10 10/17/10
f 8/11/11 7/10/11 10/17/11 11/15/11
f 6/9/12 13/18/12 9/16/12
f 12/19/13 11/15/13 16/20/13
f 10/17/14 9/16/14 14/21/14 15/22/14
f 11/15/15 10/17/15 15/22/15 16/20/15
f 9/16/16 13/23/16 14/21/16
f 12/24/17 16/20/17 19/25/17
f 15/22/18 14/21/18 17/26/18 18/27/18
f 16/20/19 15/22/19 18/27/19 19/25/19
f 14/21/20 13/28/20 17/26/20
f 12/29/21 19/30/21 22/31/21
f 18/32/22 17/33/22 20/34/22 21/35/22
f 19/30/23 18/32/23 21/35/23 22/31/23
f 17/33/24 13/36/24 20/34/24
f 20/34/25 13/37/25 1/5/25
f 12/38/26 22/31/26 2/2/26
f 21/35/27 20/34/27 1/5/27 23/4/27
f 22/31/28 21/35/28 23/4/28 2/2/28
